<svg xmlns="http://www.w3.org/2000/svg" viewBox="0 0 35.84 40"><g data-name="Layer 2"><g><path d="M35.18,32.7c-4.25-1.92-4.41-10.16-4.42-10.37V16.8A12.86,12.86,0,0,0,22.89,5,5,5,0,0,0,13,5,12.86,12.86,0,0,0,5.08,16.8v5.53c0,.21-.17,8.45-4.42,10.37A1.11,1.11,0,0,0,0,34a1.12,1.12,0,0,0,1.1.89H11.9a6.35,6.35,0,0,0,1.67,3.26,6,6,0,0,0,8.7,0,6.35,6.35,0,0,0,1.67-3.26H34.71a1.12,1.12,0,0,0,1.1-.89A1.11,1.11,0,0,0,35.18,32.7Zm-5.6-4a12.68,12.68,0,0,0,2,3.85H4.29a12.88,12.88,0,0,0,2-3.85ZM17.92,2.26a2.72,2.72,0,0,1,2.61,2,12.75,12.75,0,0,0-5.22,0A2.72,2.72,0,0,1,17.92,2.26ZM7.33,22.34V16.8a10.59,10.59,0,0,1,21.18,0v5.55A24,24,0,0,0,29,26.49H6.86A22.89,22.89,0,0,0,7.33,22.34Zm10.59,15.4a4,4,0,0,1-3.71-2.89h7.42A4,4,0,0,1,17.92,37.74Z"/></g></g></svg>